<svg width="25" height="32" viewBox="0 0 25 32" fill="none" xmlns="http://www.w3.org/2000/svg">
<path d="M11.3484 0H16.6173V23.9892C14.3682 24.4478 12.079 24.6845 9.78302 24.6956C3.34871 24.689 0 21.8331 0 16.3484C0 11.0671 3.55203 7.63419 9.05747 7.63419C9.8296 7.61923 10.6002 7.70806 11.3484 7.89826V0ZM11.3484 12.0705C10.7756 11.8828 10.1748 11.7935 9.57174 11.8065C6.91403 11.8065 5.36857 13.4212 5.36857 16.2507C5.36857 19.0063 6.83961 20.5273 9.53851 20.5273C10.1442 20.5271 10.7492 20.483 11.3484 20.3952V12.0771V12.0705Z" fill="#44B78B"/>
<path d="M24.9899 8.0002V20.0153C24.9899 24.1519 24.6776 26.1403 23.7633 27.8554C22.8303 29.5993 21.3045 30.9576 19.4578 31.6884L14.5703 29.4002C16.3459 28.7961 17.8331 27.5593 18.7442 25.9291C19.4964 24.449 19.7342 22.7338 19.7342 18.2222V8.0002H24.9899Z" fill="#44B78B"/>
<path d="M19.7305 0.0258179H24.998V5.34414H19.7305V0.0258179Z" fill="#44B78B"/>
</svg>
