<svg width="41" height="35" viewBox="0 0 41 35" fill="none" xmlns="http://www.w3.org/2000/svg">
<path d="M33.2042 11.3442C32.7744 11.2006 32.341 11.0675 31.9043 10.9451C31.9777 10.6532 32.0452 10.3647 32.1051 10.0814C33.0892 5.42822 32.4459 1.67954 30.2485 0.445297C28.1418 -0.73793 24.6963 0.495853 21.2166 3.44578C20.8737 3.73703 20.5383 4.03667 20.2109 4.34442C19.9917 4.13977 19.7687 3.9391 19.5419 3.74251C15.895 0.58836 12.2395 -0.741004 10.0446 0.496775C7.93968 1.68369 7.3164 5.20771 8.20234 9.61762C8.29048 10.0544 8.39 10.4889 8.5008 10.9207C7.98338 11.0639 7.48409 11.2164 7.00626 11.3786C2.73054 12.8308 0 15.1064 0 17.4669C0 19.9048 2.93135 22.3501 7.38471 23.8328C7.74575 23.9525 8.10979 24.0634 8.47651 24.1655C8.35741 24.6306 8.25167 25.0988 8.15943 25.5697C7.31482 29.9031 7.97438 33.3438 10.0736 34.5232C12.2417 35.7411 15.8808 34.4894 19.4241 31.4721C19.7114 31.2268 19.9924 30.9746 20.2668 30.7156C20.6213 31.0489 20.9853 31.3724 21.3584 31.6859C24.7908 34.5628 28.1806 35.7245 30.2777 34.5419C32.4438 33.3204 33.1479 29.6242 32.2339 25.1271C32.1619 24.7748 32.0811 24.4242 31.9917 24.0757C32.2473 24.002 32.4981 23.9261 32.7426 23.8471C37.3723 22.353 40.3846 19.9374 40.3846 17.4669C40.3846 15.0978 37.5659 12.8068 33.2042 11.3442ZM32.2001 22.252C31.9792 22.3232 31.7527 22.3919 31.5218 22.4587C31.0106 20.8826 30.321 19.2067 29.4768 17.475C30.2823 15.7847 30.9455 14.1302 31.4423 12.5643C31.8554 12.6808 32.2563 12.8036 32.6428 12.9331C36.3799 14.1864 38.6594 16.0392 38.6594 17.4669C38.6594 18.9875 36.1975 20.9617 32.2001 22.252ZM30.5415 25.4535C30.9457 27.4419 31.0032 29.2398 30.7355 30.6454C30.4951 31.9084 30.0114 32.7503 29.4132 33.0876C28.1407 33.8052 25.419 32.8725 22.4837 30.412C22.1367 30.1205 21.798 29.8198 21.4682 29.51C22.6062 28.2977 23.7435 26.8884 24.8534 25.3232C26.8058 25.1545 28.6502 24.8785 30.3228 24.5019C30.4052 24.8256 30.4784 25.1431 30.5415 25.4535ZM13.768 32.9636C12.5246 33.3913 11.5342 33.4036 10.9356 33.0673C9.6617 32.3517 9.13213 29.589 9.85448 25.8832C9.94034 25.4452 10.0387 25.0097 10.1493 24.5771C11.8035 24.9337 13.6345 25.19 15.5915 25.3446C16.709 26.8761 17.879 28.2839 19.0582 29.5166C18.8076 29.7528 18.5511 29.9829 18.2889 30.2069C16.7219 31.541 15.1518 32.4876 13.768 32.9636ZM7.94283 22.2427C5.97361 21.587 4.34734 20.7349 3.23266 19.8051C2.23093 18.9696 1.72534 18.1399 1.72534 17.4669C1.72534 16.0344 3.91762 14.2073 7.57417 12.9655C8.01792 12.8149 8.48235 12.6728 8.96428 12.5394C9.46972 14.1406 10.1326 15.8148 10.9326 17.5077C10.1222 19.2257 9.44984 20.9267 8.93951 22.5468C8.60478 22.4534 8.27245 22.352 7.94283 22.2427ZM9.89549 9.29476C9.13655 5.51658 9.64056 2.66654 10.9091 1.95122C12.26 1.18935 15.2476 2.27561 18.3965 4.99919C18.6018 5.17719 18.8038 5.3588 19.0024 5.54393C17.829 6.77126 16.6697 8.16855 15.5621 9.69107C13.6628 9.86256 11.8447 10.1379 10.1731 10.5069C10.0702 10.1052 9.97757 9.70111 9.89549 9.29492V9.29476ZM27.3156 13.4849C26.9208 12.8206 26.5113 12.1647 26.0875 11.5175C27.376 11.6763 28.6106 11.887 29.7699 12.1445C29.4219 13.2312 28.9881 14.3673 28.4775 15.5321C28.1042 14.8422 27.7168 14.1597 27.3156 13.4849ZM20.2117 6.74499C21.0074 7.58477 21.8044 8.52229 22.5883 9.53955C20.9981 9.4664 19.4053 9.46609 17.8151 9.53863C18.5998 8.53074 19.4035 7.59445 20.2117 6.74499ZM13.0622 13.4965C12.666 14.1658 12.2859 14.8441 11.9221 15.5307C11.4199 14.37 10.99 13.2288 10.639 12.1267C11.7912 11.8756 13.0199 11.6703 14.3003 11.5145C13.8717 12.1655 13.4589 12.8263 13.0622 13.4963V13.4965ZM14.337 23.5388C13.0143 23.395 11.7671 23.2003 10.6152 22.956C10.9717 21.8342 11.411 20.6687 11.9242 19.4831C12.2894 20.1703 12.6711 20.8489 13.069 21.5186C13.4782 22.207 13.9019 22.8813 14.337 23.5388ZM20.2594 28.3071C19.4416 27.4478 18.626 26.497 17.8295 25.4746C18.6028 25.5041 19.3911 25.5191 20.1923 25.5191C21.0155 25.5191 21.8291 25.5011 22.6301 25.4664C21.8437 26.5073 21.0497 27.4595 20.2594 28.3071ZM28.4937 19.4226C29.0335 20.6212 29.4885 21.7806 29.8497 22.8831C28.6789 23.1434 27.4147 23.353 26.0826 23.5087C26.5095 22.8496 26.9228 22.1822 27.3224 21.5071C27.7287 20.8208 28.1192 20.1258 28.4937 19.4226ZM25.828 20.6674C25.2163 21.7026 24.5702 22.7181 23.8907 23.7123C22.6598 23.7972 21.4262 23.8394 20.1923 23.8388C18.9355 23.8388 17.7131 23.8007 16.5359 23.7263C15.8387 22.7344 15.1802 21.7171 14.562 20.6766H14.5621C13.9468 19.6417 13.372 18.5844 12.839 17.507C13.3706 16.4293 13.9437 15.3715 14.5569 14.3358L14.5568 14.3359C15.1698 13.2999 15.823 12.287 16.5149 11.2993C17.7159 11.2108 18.9475 11.1647 20.1921 11.1647H20.1923C21.4427 11.1647 22.6758 11.2113 23.8765 11.3004C24.5614 12.2866 25.2105 13.2961 25.8223 14.3269C26.4376 15.3603 27.0183 16.4129 27.5633 17.4832C27.0239 18.5643 26.4451 19.6264 25.828 20.6674ZM29.3869 1.90113C30.7392 2.66085 31.2651 5.72449 30.4154 9.74208C30.3612 9.9984 30.3003 10.2595 30.234 10.5242C28.5584 10.1475 26.739 9.86732 24.8342 9.69322C23.7245 8.15395 22.5747 6.75451 21.4204 5.54301C21.7229 5.25896 22.0326 4.98228 22.3493 4.71321C25.3308 2.18587 28.1173 1.18796 29.3869 1.90113ZM20.1923 13.9541C22.1839 13.9541 23.7985 15.5268 23.7985 17.4669C23.7985 19.4069 22.1839 20.9797 20.1923 20.9797C18.2007 20.9797 16.5861 19.4069 16.5861 17.4669C16.5861 15.5268 18.2007 13.9541 20.1923 13.9541Z" fill="#00D8FF"/>
</svg>
