<svg width="150" height="99" viewBox="0 0 150 99" fill="none" xmlns="http://www.w3.org/2000/svg">
<path d="M115.873 57.4899C119.353 58.4559 102.795 60.7493 102.795 60.7493C102.795 60.7493 130.952 60.6595 122.876 58.5442C120.315 57.8736 140.153 53.2961 144.344 46.6064C138.526 53.1313 114.748 57.1776 115.873 57.4899Z" fill="#C4C4C4" stroke="black" stroke-width="0.6"/>
<path fill-rule="evenodd" clip-rule="evenodd" d="M117.322 28.2933C114.593 29.5392 112.636 33.1509 111.258 38.3002C112.636 33.1509 115.075 29.7155 117.803 28.4696C118.23 28.275 119.049 28.0656 119.583 28.0278C120.117 27.9899 120.306 28.0447 120.669 28.115C120.215 27.9172 119.701 27.8089 119.034 27.8562C118.367 27.9035 117.767 28.0898 117.322 28.2933Z" fill="black"/>
<path fill-rule="evenodd" clip-rule="evenodd" d="M112.267 8.86628C112.267 8.86628 109.989 13.3426 109.518 28.7413C109.264 37.0337 109.529 41.5339 109.304 44.3543C109.303 47.0773 108.899 48.3719 108.668 48.6037C109.093 48.3099 111.177 46.728 111.336 44.7442C111.593 42.7107 111.747 39.7962 112.451 37.1632C113.83 32.0138 115.49 29.8965 118.219 28.6507C118.78 28.3944 118.93 28.2845 119.648 28.1744C120.16 28.1671 120.654 28.2172 121.112 28.3469C122.109 28.9606 122.866 30.1073 123.142 31.8799C123.758 35.8354 123.909 45.7708 123.909 45.7708C123.909 45.7708 123.902 35.5094 123.661 33.5269C123.42 31.5444 123.123 30.3416 122.737 29.737C123.157 30.291 123.63 31.4557 123.787 32.4656C124.403 36.4211 123.909 45.7708 123.909 45.7708C123.909 45.7708 124.796 36.8142 124.076 31.8136C123.806 29.9384 122.162 28.6952 122.162 28.6952C120.738 27.7521 120.028 27.6805 119.027 27.7515C118.026 27.8224 117.41 28.047 116.788 28.3312C114.265 29.4831 112.418 32.3578 111.14 36.7863C111.316 34.6162 110.695 31.6072 110.786 28.6515C111.257 13.2528 112.267 8.86628 112.267 8.86628C112.267 8.86628 110.857 13.2811 110.385 28.6798C110.261 32.7551 110.684 37.7936 110.469 40.4089C110.598 37.6704 109.913 33.2405 110.052 28.7035C110.523 13.3048 112.267 8.86628 112.267 8.86628ZM117.322 28.2933C114.593 29.5392 112.636 33.1509 111.258 38.3002C112.636 33.1509 115.075 29.7155 117.803 28.4696C118.23 28.275 119.049 28.0656 119.583 28.0278C120.117 27.9899 120.306 28.0447 120.669 28.115C120.215 27.9172 119.701 27.8089 119.034 27.8562C118.367 27.9035 117.767 28.0898 117.322 28.2933Z" fill="black"/>
<path d="M112.267 8.86628C112.267 8.86628 109.989 13.3426 109.518 28.7413C109.264 37.0337 109.529 41.5339 109.304 44.3543C109.303 47.0773 108.899 48.3719 108.668 48.6037C109.093 48.3099 111.177 46.728 111.336 44.7442C111.593 42.7107 111.747 39.7962 112.451 37.1632C113.83 32.0138 115.49 29.8965 118.219 28.6507C118.78 28.3944 118.93 28.2845 119.648 28.1744C120.16 28.1671 120.654 28.2172 121.112 28.3469C122.109 28.9606 122.866 30.1074 123.142 31.8799C123.758 35.8354 123.909 45.7708 123.909 45.7708M112.267 8.86628C112.267 8.86628 110.523 13.3048 110.052 28.7035C109.913 33.2405 110.598 37.6704 110.469 40.4089C110.684 37.7936 110.261 32.7551 110.385 28.6798C110.857 13.2811 112.267 8.86628 112.267 8.86628ZM112.267 8.86628C112.267 8.86628 111.257 13.2528 110.786 28.6515C110.695 31.6073 111.316 34.6162 111.14 36.7863C112.418 32.3578 114.265 29.4831 116.788 28.3312C117.41 28.047 118.026 27.8224 119.027 27.7515C120.028 27.6805 120.738 27.7521 122.162 28.6952C122.162 28.6952 123.806 29.9384 124.076 31.8136C124.796 36.8142 123.909 45.7708 123.909 45.7708M123.909 45.7708C123.909 45.7708 123.902 35.5094 123.661 33.5269C123.42 31.5444 123.123 30.3416 122.737 29.737C123.157 30.291 123.63 31.4557 123.787 32.4656C124.403 36.4211 123.909 45.7708 123.909 45.7708ZM111.258 38.3002C112.636 33.1509 114.593 29.5392 117.322 28.2933C117.767 28.0898 118.367 27.9035 119.034 27.8562C119.701 27.8089 120.215 27.9172 120.669 28.115C120.306 28.0447 120.117 27.9899 119.583 28.0278C119.049 28.0656 118.23 28.275 117.803 28.4696C115.075 29.7155 112.636 33.1509 111.258 38.3002Z" stroke="black"/>
<path d="M43.9136 62.8397C45.5558 20.2121 51.3646 20.9066 51.0627 24.9227C50.2832 35.2904 49.224 42.0689 48.99 33.0019C48.8901 29.1332 50.9457 22.3216 49.8722 25.1655C48.7988 28.0094 45.127 51.8976 43.9136 62.8397Z" fill="black" stroke="black" stroke-linejoin="round"/>
<path fill-rule="evenodd" clip-rule="evenodd" d="M68.7624 45.2568C69.0657 40.6057 69.303 39.7229 65.9001 51.6814C64.4442 55.7331 66.464 52.4008 67.1757 49.7525C67.4372 48.7795 67.6153 47.4856 67.7357 46.6104C67.9432 45.1034 67.9797 44.8378 67.9768 49.5891C67.9725 56.5796 71.4109 58.902 74.7279 54.0537C76.2778 51.7883 77.1031 48.416 77.4766 46.2732C77.8678 44.0283 77.7633 43.1328 77.4766 46.2732C77.4608 46.4457 77.4445 46.6305 77.4277 46.8278C77.248 48.9389 76.8542 52.644 76.3786 56.8925C66.718 59.4631 57.4544 62.2873 47.9012 65.2178C41.7744 63.4876 35.4233 62.7801 29.6288 64.0827C9.6825 68.5665 0.737914 77.8998 20.447 74.2988C27.7885 72.9575 38.2392 70.1139 49.2508 66.913C60.3735 70.2413 69.9377 76.9684 74.5108 81.6337C74.9272 77.2321 75.6269 70.4931 76.3267 63.7534L76.3269 63.752L76.327 63.7508L76.3275 63.7465L76.3282 63.7391C76.5033 62.0532 76.8294 59.6529 77 58.0037C85.5055 55.498 92.7379 54.1366 97.4945 53.1669C98.4401 52.9741 99.4719 52.7621 100.573 52.5358L100.575 52.5355C117.206 49.1189 150.939 45.1913 142.053 48.6718C153.424 45.1018 127.693 45.5834 106.019 50.1395C102.999 50.7744 100.042 51.3959 97.2495 51.9652C90.1962 53.4032 83.5336 55.0005 77.056 56.7128C77.6339 51.1047 78.1362 46.1204 78.3766 43.2967C78.7575 38.8227 78.6657 39.2024 78.1143 41.483C77.4432 44.2586 76.0914 49.8497 74.0824 52.9336C70.3216 58.7068 68.459 49.908 68.7624 45.2568ZM34.0578 69.4379C12.4353 75.9323 0.566302 75.0144 25.1482 66.665C31.8933 64.374 38.9096 64.4883 45.5293 65.9455C41.7721 67.0982 37.962 68.2652 34.0578 69.4379ZM73.8575 78.4292C74.4261 73.7382 75.2141 65.4385 76 58.5037C72.6606 59.4895 69.0788 60.4328 65.5 61.5037C60.7686 62.9194 55.2879 64.602 50.5 66.0037C59.9112 69.2607 69.2581 74.8625 73.8575 78.4292Z" fill="black"/>
<path d="M74.7279 54.0537C71.4109 58.902 67.9725 56.5796 67.9768 49.5891C67.9797 44.8378 67.9432 45.1034 67.7357 46.6104C67.6153 47.4856 67.4371 48.7795 67.1757 49.7525C66.464 52.4008 64.4442 55.7331 65.9001 51.6814C69.303 39.7229 69.0657 40.6057 68.7624 45.2568C68.459 49.908 70.3216 58.7068 74.0824 52.9336C76.0914 49.8497 77.4432 44.2586 78.1143 41.483C78.6657 39.2024 78.7575 38.8227 78.3766 43.2967C78.1362 46.1204 77.6339 51.1047 77.056 56.7128C83.5336 55.0005 90.1962 53.4032 97.2495 51.9652C100.042 51.3959 102.999 50.7744 106.019 50.1395C127.693 45.5834 153.424 45.1018 142.053 48.6718C150.939 45.1913 117.206 49.1189 100.575 52.5355L100.573 52.5358C99.4719 52.7621 98.4401 52.9741 97.4945 53.1669C92.7379 54.1366 85.5055 55.498 77 58.0037C76.8294 59.6529 76.5033 62.0532 76.3282 63.7391M74.7279 54.0537C76.2778 51.7883 77.1031 48.416 77.4766 46.2732M74.7279 54.0537C77.9015 49.4151 78.037 40.1352 77.4766 46.2732M77.4766 46.2732C77.4608 46.4457 77.4445 46.6305 77.4277 46.8278C77.248 48.9389 76.8541 52.644 76.3786 56.8925C66.718 59.4631 57.4544 62.2873 47.9012 65.2178C41.7744 63.4876 35.4233 62.7801 29.6288 64.0827C9.6825 68.5665 0.737914 77.8998 20.447 74.2988C27.7885 72.9575 38.2392 70.1139 49.2508 66.913C60.3735 70.2413 69.9377 76.9684 74.5108 81.6337C74.9272 77.2321 75.6269 70.4931 76.3267 63.7534L76.3269 63.752L76.327 63.7508L76.3275 63.7465M77.4766 46.2732C77.7633 43.1328 77.8678 44.0283 77.4766 46.2732ZM76.3275 63.7465L76.3282 63.7391M76.3275 63.7465C76.3277 63.744 76.328 63.7416 76.3282 63.7391M25.1482 66.665C0.566303 75.0144 12.4353 75.9323 34.0578 69.4379C37.962 68.2652 41.7721 67.0982 45.5293 65.9455C38.9096 64.4883 31.8933 64.374 25.1482 66.665ZM73.8575 78.4292C74.4261 73.7382 75.2141 65.4385 76 58.5037C72.6606 59.4895 69.0788 60.4328 65.5 61.5037C60.7686 62.9194 55.2879 64.602 50.5 66.0037C59.9112 69.2607 69.2581 74.8625 73.8575 78.4292Z" stroke="black"/>
<path d="M52.302 17.0833C30.4861 22.6033 36.3157 23.5592 41.3359 26.4673C41.3359 26.4673 44.1204 28.223 44.4613 27.9746C44.8021 27.7262 42.3062 27.1632 39.7332 24.471C37.0799 21.6949 40.7891 21.7539 53.7874 18.389C67.1945 14.9183 84.5147 13.2027 87.3201 17.0922C89.5644 20.2037 66.7951 31.5207 55.4932 36.6267C56.9356 33.8308 56.602 34.1688 55.9163 34.7534C40.4857 47.9069 93.183 20.1858 91.9571 16.1468C90.7311 12.1078 74.1178 11.5633 52.302 17.0833Z" fill="black" stroke="black"/>
<path d="M56.8535 55.4292C59.7515 49.3562 64.2781 37.4653 62.1919 46.1973L62.1868 46.2188C59.9264 55.6805 58.7966 60.4094 61.4576 57.4004C63.588 54.9915 65.2173 53.907 66.6995 51.5187C63.8493 56.4092 58.2437 63.935 58.6423 57.4221C58.7052 56.3944 58.8229 55.4717 58.9731 54.6565C56.226 59.1539 54.0963 61.2071 56.8535 55.4292Z" fill="black"/>
<path d="M56.8535 55.4292L56.4022 55.2138L56.8535 55.4292ZM62.1919 46.1973L61.7056 46.0811L61.7056 46.0811L62.1919 46.1973ZM62.1868 46.2188L62.6731 46.335L62.6731 46.335L62.1868 46.2188ZM61.4576 57.4004L61.8322 57.7317L61.4576 57.4004ZM66.6995 51.5187L67.1315 51.7705C67.2692 51.5343 67.1915 51.2312 66.9572 51.0903C66.7229 50.9493 66.4188 51.0228 66.2746 51.2551L66.6995 51.5187ZM58.6423 57.4221L59.1414 57.4526L58.6423 57.4221ZM59.3982 53.949L59.8286 54.2035L59.8286 54.2035L59.3982 53.949ZM57.3047 55.6445C58.0335 54.1174 58.8631 52.2278 59.6619 50.3966C60.4627 48.5607 61.2317 46.7857 61.8448 45.4729C62.152 44.8151 62.4144 44.2857 62.6184 43.9268C62.7218 43.7448 62.8005 43.6241 62.8545 43.5556C62.8827 43.5198 62.8898 43.5169 62.8765 43.5274C62.8691 43.5333 62.8447 43.5519 62.8042 43.569C62.7633 43.5864 62.6892 43.6092 62.5939 43.5993C62.3591 43.5749 62.26 43.3987 62.2375 43.3456C62.2167 43.2965 62.2208 43.2731 62.223 43.3132C62.2268 43.3835 62.2193 43.526 62.1852 43.7681C62.1185 44.2422 61.9657 44.9925 61.7056 46.0811L62.6783 46.3135C62.9397 45.2191 63.1018 44.4308 63.1755 43.9076C63.2116 43.6511 63.2308 43.4301 63.2215 43.2594C63.2172 43.179 63.205 43.0658 63.1584 42.9558C63.1101 42.8417 62.9758 42.6335 62.697 42.6046C62.4733 42.5814 62.3129 42.6982 62.2559 42.7433C62.1813 42.8023 62.1187 42.8737 62.0692 42.9364C61.968 43.0648 61.8599 43.2375 61.749 43.4327C61.5243 43.828 61.248 44.3875 60.9387 45.0498C60.3187 46.3774 59.543 48.168 58.7453 49.9968C57.9454 51.8303 57.1225 53.7045 56.4022 55.2138L57.3047 55.6445ZM61.7056 46.0811L61.7005 46.1027L62.6731 46.335L62.6783 46.3135L61.7056 46.0811ZM61.7005 46.1026C60.5746 50.8152 59.7168 54.4017 59.48 56.4281C59.4207 56.9365 59.3966 57.3745 59.4246 57.7199C59.4386 57.8927 59.467 58.0628 59.5218 58.2153C59.5759 58.3657 59.6695 58.5368 59.8386 58.6588C60.2259 58.9381 60.6526 58.7523 60.9015 58.5933C61.1809 58.4147 61.4914 58.117 61.8322 57.7317L61.0831 57.0692C60.7586 57.4361 60.5223 57.6488 60.363 57.7506C60.1731 57.8719 60.2692 57.7364 60.4236 57.8477C60.4761 57.8857 60.4777 57.9182 60.4628 57.8769C60.4487 57.8376 60.4313 57.7629 60.4213 57.6392C60.4013 57.3917 60.4165 57.0302 60.4733 56.5441C60.7013 54.5929 61.5385 51.0841 62.6731 46.335L61.7005 46.1026ZM61.8322 57.7317C62.8855 56.5406 63.8016 55.6911 64.6776 54.8029C65.549 53.9194 66.3555 53.0212 67.1243 51.7824L66.2746 51.2551C65.5613 52.4045 64.812 53.2426 63.9657 54.1007C63.1239 54.9541 62.1601 55.8513 61.0831 57.0692L61.8322 57.7317ZM66.2675 51.267C64.8484 53.7019 62.7613 56.7593 61.1021 58.3901C60.6888 58.7963 60.3213 59.0946 60.0135 59.2737C59.6893 59.4623 59.5202 59.4673 59.4583 59.4512C59.4394 59.4463 59.3317 59.4184 59.2366 59.0971C59.1403 58.7717 59.0929 58.245 59.1414 57.4526L58.1432 57.3916C58.0921 58.2274 58.1326 58.8903 58.2777 59.3808C58.424 59.8754 58.711 60.2899 59.2062 60.4189C59.6583 60.5367 60.1224 60.3672 60.5164 60.138C60.9268 59.8992 61.3624 59.5364 61.8031 59.1033C63.5595 57.3768 65.7003 54.2261 67.1315 51.7705L66.2675 51.267ZM59.1414 57.4526C59.2031 56.4446 59.3183 55.542 59.4648 54.7471L58.4813 54.5659C58.3274 55.4014 58.2073 56.3442 58.1432 57.3916L59.1414 57.4526ZM59.4648 54.7471C59.7185 53.3698 60.0651 52.3199 60.386 51.6062C60.5469 51.2484 60.6976 50.9835 60.8213 50.8069C60.8833 50.7184 60.9333 50.6596 60.9688 50.6242C61.0106 50.5825 61.0096 50.5959 60.9657 50.6135C60.9103 50.6355 60.7323 50.6757 60.5708 50.5378C60.4509 50.4354 60.4497 50.32 60.4524 50.3467C60.4557 50.3802 60.4475 50.5258 60.3554 50.8278C60.1797 51.4037 59.7612 52.3529 58.9679 53.6944L59.8286 54.2035C60.6419 52.8282 61.1036 51.8022 61.3119 51.1196C61.4117 50.7924 61.4714 50.4879 61.4475 50.2476C61.4365 50.1373 61.3978 49.929 61.2203 49.7774C61.0011 49.5902 60.7453 49.6248 60.5954 49.6845C60.457 49.7397 60.3449 49.8341 60.2625 49.9162C60.1739 50.0047 60.0868 50.1125 60.0022 50.2332C59.8328 50.475 59.6527 50.7986 59.474 51.1961C59.1156 51.9931 58.7475 53.1215 58.4813 54.5659L59.4648 54.7471ZM58.9679 53.6944C58.8261 53.9342 58.6854 54.1682 58.5464 54.3958L59.3998 54.9171C59.5413 54.6853 59.6845 54.4472 59.8286 54.2035L58.9679 53.6944ZM58.5464 54.3958C57.865 55.5113 57.2251 56.47 56.6931 57.1899C56.4269 57.5501 56.1911 57.846 55.9934 58.0699C55.788 58.3025 55.6479 58.4295 55.5723 58.4797C55.5257 58.5107 55.5611 58.4736 55.6525 58.4679C55.7103 58.4644 55.796 58.4737 55.8831 58.5257C55.9699 58.5776 56.018 58.6482 56.0416 58.699C56.0789 58.7792 56.0627 58.8231 56.0682 58.7584C56.0723 58.7102 56.0862 58.6289 56.1186 58.5061C56.2507 58.006 56.6158 57.0882 57.3047 55.6445L56.4022 55.2138C55.7126 56.6591 55.31 57.6514 55.1518 58.2508C55.1116 58.4029 55.0827 58.5458 55.0718 58.6737C55.0624 58.7852 55.059 58.9574 55.1347 59.1203C55.1775 59.2125 55.2512 59.3131 55.3699 59.384C55.4888 59.4551 55.6124 59.4723 55.714 59.4661C55.8931 59.455 56.0399 59.3697 56.1261 59.3124C56.3161 59.186 56.5275 58.9759 56.743 58.7318C56.9662 58.479 57.2207 58.1586 57.4973 57.7842C58.0512 57.0348 58.7076 56.0503 59.3998 54.9171L58.5464 54.3958Z" fill="black"/>
<ellipse cx="63.8283" cy="39.0462" rx="1.2264" ry="2.4528" transform="rotate(12.8413 63.8283 39.0462)" fill="black"/>
<path d="M83.5247 41.9355C84.0653 36.4016 82.9803 39.4764 80.993 44.0536C79.2889 47.978 80.0348 49.3554 81.5571 44.773C83.6522 38.4664 81.2132 49.0152 83.8693 51.8114C85.8308 53.8762 88.439 53.7616 91.8805 50.1781C90.7685 54.9556 95.4861 51.4905 97.3995 48.5971C98.9939 46.186 97.2361 47.796 94.8405 50.3705C92.2731 53.1297 93.1148 48.2576 93.9665 40.157C94.8183 32.0564 92.8322 43.4297 91.987 46.8187C91.0925 50.4056 88.8112 51.4944 86.584 50.8022C84.2094 50.0642 82.9841 47.4694 83.5247 41.9355Z" fill="black" stroke="black"/>
<path d="M99.3004 41.9514C94.9262 38.5043 101.871 36.1428 105.449 35.2742C108.252 34.7026 95.9988 38.0353 102.268 42.1809C108.537 46.3265 105.896 47.6994 103.656 48.9904C101.502 50.2323 90.5955 52.0703 93.7106 48.932C96.8256 45.7937 98.8315 47.0535 97.2292 47.3802C94.2127 48.2733 91.5564 51.6756 98.7627 49.1536C107.33 46.1553 102.283 44.3019 99.3004 41.9514Z" fill="black" stroke="black"/>
</svg>
