<svg width="38" height="38" viewBox="0 0 38 38" fill="none" xmlns="http://www.w3.org/2000/svg">
<path d="M34.9608 0H3.24696C1.51406 0 0 1.24687 0 2.95942V34.7437C0 36.4655 1.51406 38 3.24696 38H34.9515C36.6937 38 37.9999 36.4554 37.9999 34.7437V2.95942C38.0101 1.24687 36.6937 0 34.9608 0ZM11.7791 31.6748H6.3353V14.7487H11.7791V31.6748ZM9.24552 12.1753H9.2065C7.46427 12.1753 6.33615 10.8783 6.33615 9.25486C6.33615 7.60169 7.49396 6.33531 9.27521 6.33531C11.0565 6.33531 12.1464 7.59236 12.1854 9.25486C12.1846 10.8783 11.0565 12.1753 9.24552 12.1753ZM31.6748 31.6748H26.231V22.42C26.231 20.2027 25.4388 18.6878 23.4692 18.6878C21.9645 18.6878 21.0739 19.7057 20.6777 20.6973C20.5293 21.0535 20.4894 21.5387 20.4894 22.034V31.6748H15.0456V14.7487H20.4894V17.1042C21.2817 15.9761 22.5192 14.3526 25.3989 14.3526C28.9724 14.3526 31.6757 16.7081 31.6757 21.7864L31.6748 31.6748Z" fill="black"/>
</svg>
